<?xml version="1.0" encoding="UTF-8"?>
<svg width="136px" height="36px" viewBox="0 0 136 36" version="1.1" xmlns="http://www.w3.org/2000/svg" xmlns:xlink="http://www.w3.org/1999/xlink">
    <!-- Generator: Sketch 46.1 (44463) - http://www.bohemiancoding.com/sketch -->
    <title>logo</title>
    <desc>Created with Sketch.</desc>
    <defs></defs>
    <g id="Promo-Site" stroke="none" stroke-width="1" fill="none" fill-rule="evenodd">
        <g id="logo">
            <g id="Logo" fill-rule="nonzero">
                <rect id="Rectangle-3" fill="#0062FF" x="0" y="0" width="36" height="36" rx="5"></rect>
                <polygon id="M" fill="#FFFFFF" points="13.8538813 17.0903955 14.0547945 25 10 25 10 11 15.6803653 11 18.0182648 18.5338983 18.109589 18.5338983 20.1369863 11 26 11 26 25 21.7808219 25 21.9086758 17.1299435 21.7990868 17.1101695 19.3881279 25 16.3196347 25 13.9452055 17.0903955"></polygon>
            </g>
            <path d="M52.5878906,11.203125 L55.875,20.484375 L59.1445312,11.203125 L62.6074219,11.203125 L62.6074219,24 L59.9619141,24 L59.9619141,20.5019531 L60.2255859,14.4638672 L56.7714844,24 L54.9609375,24 L51.515625,14.4726562 L51.7792969,20.5019531 L51.7792969,24 L49.1425781,24 L49.1425781,11.203125 L52.5878906,11.203125 Z M68.2939453,20.4052734 L70.0517578,14.4902344 L72.7763672,14.4902344 L68.953125,25.4765625 L68.7421875,25.9775391 C68.1738253,27.2197328 67.2363347,27.8408203 65.9296875,27.8408203 C65.560545,27.8408203 65.1855488,27.7851568 64.8046875,27.6738281 L64.8046875,25.7490234 L65.1914062,25.7578125 C65.6718774,25.7578125 66.0307605,25.684571 66.2680664,25.5380859 C66.5053723,25.3916008 66.6914056,25.1484392 66.8261719,24.8085938 L67.125,24.0263672 L63.7939453,14.4902344 L66.5273438,14.4902344 L68.2939453,20.4052734 Z M78.6738281,20.8271484 L81.5742188,11.203125 L84.5097656,11.203125 L80.0537109,24 L77.3027344,24 L72.8642578,11.203125 L75.7910156,11.203125 L78.6738281,20.8271484 Z M89.5371094,24.1757812 C88.1425712,24.1757812 87.0073286,23.7480512 86.1313477,22.8925781 C85.2553667,22.0371051 84.8173828,20.8974681 84.8173828,19.4736328 L84.8173828,19.2275391 C84.8173828,18.2724562 85.0019513,17.4184608 85.3710938,16.6655273 C85.7402362,15.9125939 86.2631802,15.3325216 86.9399414,14.925293 C87.6167026,14.5180644 88.3886675,14.3144531 89.2558594,14.3144531 C90.5566471,14.3144531 91.5805627,14.7246053 92.3276367,15.5449219 C93.0747108,16.3652385 93.4482422,17.5283128 93.4482422,19.0341797 L93.4482422,20.0712891 L87.3925781,20.0712891 C87.4746098,20.6923859 87.7221659,21.1904278 88.1352539,21.5654297 C88.5483419,21.9404316 89.0712859,22.1279297 89.7041016,22.1279297 C90.6826221,22.1279297 91.4472629,21.773441 91.9980469,21.0644531 L93.2460938,22.4619141 C92.8652325,23.0009793 92.3496126,23.4213852 91.6992188,23.7231445 C91.0488249,24.0249039 90.328129,24.1757812 89.5371094,24.1757812 Z M89.2470703,16.3710938 C88.7431615,16.3710938 88.3344742,16.5410139 88.0209961,16.8808594 C87.707518,17.2207048 87.5068364,17.7070281 87.4189453,18.3398438 L90.9521484,18.3398438 L90.9521484,18.1376953 C90.9404296,17.5751925 90.7880874,17.1401383 90.4951172,16.8325195 C90.202147,16.5249008 89.7861355,16.3710938 89.2470703,16.3710938 Z M97.2275391,14.4902344 L97.3066406,15.5888672 C97.9863315,14.7392536 98.8974552,14.3144531 100.040039,14.3144531 C101.047857,14.3144531 101.797849,14.6103486 102.290039,15.2021484 C102.782229,15.7939483 103.03418,16.678705 103.045898,17.8564453 L103.045898,24 L100.505859,24 L100.505859,17.9179688 C100.505859,17.3789036 100.388673,16.9877942 100.154297,16.7446289 C99.9199207,16.5014636 99.5302762,16.3798828 98.9853516,16.3798828 C98.2705042,16.3798828 97.7343768,16.6845673 97.3769531,17.2939453 L97.3769531,24 L94.8369141,24 L94.8369141,14.4902344 L97.2275391,14.4902344 Z M109.549805,16.96875 L112.212891,11.203125 L115.095703,11.203125 L110.894531,19.359375 L110.894531,24 L108.213867,24 L108.213867,19.359375 L104.012695,11.203125 L106.904297,11.203125 L109.549805,16.96875 Z M115.130859,19.1572266 C115.130859,18.2138625 115.312498,17.3730506 115.675781,16.6347656 C116.039064,15.8964807 116.562008,15.3251973 117.244629,14.9208984 C117.92725,14.5165995 118.719722,14.3144531 119.62207,14.3144531 C120.90528,14.3144531 121.952633,14.7070273 122.76416,15.4921875 C123.575688,16.2773477 124.02832,17.3437433 124.12207,18.6914062 L124.139648,19.3417969 C124.139648,20.8007885 123.732426,21.971187 122.917969,22.8530273 C122.103512,23.7348677 121.010749,24.1757812 119.639648,24.1757812 C118.268548,24.1757812 117.17432,23.7363325 116.356934,22.8574219 C115.539547,21.9785112 115.130859,20.7832107 115.130859,19.2714844 L115.130859,19.1572266 Z M117.670898,19.3417969 C117.670898,20.2441451 117.840819,20.9340796 118.180664,21.4116211 C118.52051,21.8891625 119.006833,22.1279297 119.639648,22.1279297 C120.254886,22.1279297 120.73535,21.8920922 121.081055,21.4204102 C121.42676,20.9487281 121.599609,20.1943411 121.599609,19.1572266 C121.599609,18.2724565 121.42676,17.5869165 121.081055,17.1005859 C120.73535,16.6142554 120.249027,16.3710938 119.62207,16.3710938 C119.000973,16.3710938 118.52051,16.6127906 118.180664,17.0961914 C117.840819,17.5795923 117.670898,18.3281199 117.670898,19.3417969 Z" id="MyVenYo" fill="#FFFFFF"></path>
            <path d="M126.108594,19.1572266 C126.108594,18.2138625 126.290233,17.3730506 126.653516,16.6347656 C127.016799,15.8964807 127.539743,15.3251973 128.222364,14.9208984 C128.904984,14.5165995 129.697457,14.3144531 130.599805,14.3144531 C131.883015,14.3144531 132.930367,14.7070273 133.741895,15.4921875 C134.553422,16.2773477 135.006055,17.3437433 135.099805,18.6914062 L135.117383,19.3417969 C135.117383,20.8007885 134.710161,21.971187 133.895704,22.8530273 C133.081246,23.7348677 131.988484,24.1757812 130.617383,24.1757812 C129.246283,24.1757812 128.152055,23.7363325 127.334668,22.8574219 C126.517281,21.9785112 126.108594,20.7832107 126.108594,19.2714844 L126.108594,19.1572266 Z M128.648633,19.3417969 C128.648633,20.2441451 128.818553,20.9340796 129.158399,21.4116211 C129.498244,21.8891625 129.984568,22.1279297 130.617383,22.1279297 C131.232621,22.1279297 131.713085,21.8920922 132.058789,21.4204102 C132.404494,20.9487281 132.577344,20.1943411 132.577344,19.1572266 C132.577344,18.2724565 132.404494,17.5869165 132.058789,17.1005859 C131.713085,16.6142554 131.226761,16.3710938 130.599805,16.3710938 C129.978708,16.3710938 129.498244,16.6127906 129.158399,17.0961914 C128.818553,17.5795923 128.648633,18.3281199 128.648633,19.3417969 Z" id="o" fill="#FFFFFF"></path>
        </g>
    </g>
</svg>